Land_normalized_precision_landing06_filtered_grf
version=1
nRows=12
nColumns=37
inDegrees=yes
endheader
time		1_ground_force_vx		1_ground_force_vy		1_ground_force_vz		1_ground_force_px		1_ground_force_py		1_ground_force_pz		1_ground_torque_x		1_ground_torque_y		1_ground_torque_z		2_ground_force_vx		2_ground_force_vy		2_ground_force_vz		2_ground_force_px		2_ground_force_py		2_ground_force_pz		2_ground_torque_x		2_ground_torque_y		2_ground_torque_z		3_ground_force_vx		3_ground_force_vy		3_ground_force_vz		3_ground_force_px		3_ground_force_py		3_ground_force_pz		3_ground_torque_x		3_ground_torque_y		3_ground_torque_z		4_ground_force_vx		4_ground_force_vy		4_ground_force_vz		4_ground_force_px		4_ground_force_py		4_ground_force_pz		4_ground_torque_x		4_ground_torque_y		4_ground_torque_z		
1.142833		-88.344710		916.043498		239.509730		0.105951		0.000000		0.266954		-1.524946		15.812345		4.134341		25.437110		1004.985374		275.340174		-0.119331		0.000000		0.235229		1.389298		54.886719		15.038087		11.182064		-1.117787		-4.551047		0.381077		1.275717		1.884993		-0.015325		0.001532		0.006238		-6.022715		-0.174034		-0.440593		-0.351709		1.268352		1.872955		0.023136		0.000668		0.001692		
1.145737		-76.923985		866.180963		235.724984		0.104980		0.000000		0.267590		-1.376267		15.497430		4.217567		23.059358		978.769202		249.753450		-0.118837		0.000000		0.237296		1.175642		49.899817		12.733337		11.378513		-1.135032		-4.561676		0.381071		1.275735		1.884967		-0.016481		0.001644		0.006607		-5.986636		-0.292688		-0.439939		-0.351688		1.268338		1.872936		0.021535		0.001053		0.001582		
1.148641		-67.023602		817.711968		233.824732		0.103862		0.000000		0.267756		-1.234297		15.058974		4.306137		21.834125		953.155240		232.398055		-0.118797		0.000000		0.238648		1.064771		46.481827		11.333228		11.530865		-1.181176		-4.635248		0.381073		1.275755		1.884944		-0.017246		0.001767		0.006933		-5.925165		-0.391310		-0.490270		-0.351670		1.268324		1.872908		0.020599		0.001360		0.001705		
1.151545		-59.264311		769.997202		233.796869		0.102530		0.000000		0.266904		-1.092641		14.196210		4.310431		20.816689		926.253673		224.636571		-0.118953		0.000000		0.238614		1.007874		44.846101		10.876156		11.622750		-1.242311		-4.756784		0.381084		1.275775		1.884922		-0.017404		0.001860		0.007122		-5.849961		-0.456847		-0.576808		-0.351653		1.268316		1.872871		0.020399		0.001593		0.002012		
1.154449		-53.472861		723.308734		235.393400		0.100909		0.000000		0.264766		-0.956439		12.937366		4.210298		19.090247		898.359117		224.186562		-0.119002		0.000000		0.237198		0.945720		44.504503		11.106186		11.647068		-1.295440		-4.901851		0.381105		1.275793		1.884899		-0.016958		0.001886		0.007137		-5.779225		-0.479684		-0.666589		-0.351634		1.268314		1.872829		0.020612		0.001711		0.002377		
1.157354		-49.160868		678.589553		238.005677		0.098982		0.000000		0.261418		-0.834116		11.513619		4.038126		16.305514		871.289641		227.039686		-0.118765		0.000000		0.234903		0.836259		44.687335		11.644685		11.601023		-1.317850		-5.037937		0.381134		1.275803		1.884874		-0.016101		0.001829		0.006992		-5.734305		-0.457511		-0.723134		-0.351612		1.268319		1.872780		0.020809		0.001660		0.002624		
1.160258		-45.917917		637.086885		240.726679		0.096905		0.000000		0.257330		-0.730065		10.129274		3.827261		12.849307		847.328086		229.657117		-0.118222		0.000000		0.232433		0.679119		44.785479		12.138587		11.486130		-1.297150		-5.132074		0.381167		1.275806		1.884846		-0.015038		0.001699		0.006719		-5.734359		-0.397516		-0.724643		-0.351584		1.268333		1.872727		0.020750		0.001438		0.002622		
1.163162		-43.463403		600.009474		242.693067		0.094969		0.000000		0.253283		-0.645407		8.909840		3.603773		9.606177		828.338624		230.229434		-0.117516		0.000000		0.230402		0.516742		44.559356		12.384895		11.311895		-1.236760		-5.161121		0.381201		1.275799		1.884814		-0.013804		0.001509		0.006298		-5.789777		-0.314167		-0.674240		-0.351552		1.268350		1.872672		0.020417		0.001108		0.002378		
1.166066		-41.518902		568.236563		243.466141		0.093442		0.000000		0.250079		-0.580141		7.939948		3.401914		7.519026		815.323853		228.718436		-0.116896		0.000000		0.229145		0.406648		44.094791		12.369676		11.096918		-1.156621		-5.119759		0.381232		1.275785		1.884776		-0.012251		0.001277		0.005652		-5.895031		-0.224766		-0.597375		-0.351518		1.268367		1.872619		0.019877		0.000758		0.002015		
1.168970		-39.766002		542.207321		243.083877		0.092443		0.000000		0.248210		-0.533454		7.273619		3.260922		7.178410		808.415585		226.037037		-0.116589		0.000000		0.228707		0.387256		43.611822		12.194084		10.865197		-1.087913		-5.020313		0.381258		1.275765		1.884732		-0.010212		0.001023		0.004718		-6.024395		-0.145834		-0.527911		-0.351487		1.268381		1.872570		0.019172		0.000464		0.001680		
1.171874		-37.940389		521.934345		241.831765		0.091944		0.000000		0.247670		-0.500093		6.879622		3.187583		8.617052		807.071143		223.023026		-0.116653		0.000000		0.228943		0.461912		43.262993		11.955142		10.641891		-1.062546		-4.885728		0.381279		1.275746		1.884684		-0.007759		0.000774		0.003562		-6.136697		-0.091372		-0.491367		-0.351460		1.268388		1.872529		0.018315		0.000273		0.001467		
1.174778		-35.922388		507.096226		239.955166		0.091799		0.000000		0.248008		-0.472606		6.671516		3.156926		11.369472		810.308650		219.840716		-0.116952		0.000000		0.229649		0.603804		43.034411		11.675468		10.448943		-1.099868		-4.740881		0.381296		1.275731		1.884633		-0.005383		0.000566		0.002443		-6.191813		-0.069954		-0.493308		-0.351439		1.268385		1.872492		0.017336		0.000196		0.001381		
